<svg width="530" height="96" viewBox="0 0 530 96" fill="none" xmlns="http://www.w3.org/2000/svg">
<path d="M72.65 73H23.45L14.45 93.85H0.5L42.8 0.399998H53.3L95.75 93.85H81.8L72.65 73ZM28.4 61.6H67.85L48.05 16L28.4 61.6ZM220.303 31.9L212.503 42.1C210.303 38 206.653 36.1 201.553 36.4C198.953 36.5 196.153 37.7 193.153 40C190.253 42.3 186.053 46.5 180.553 52.6C178.153 55.3 174.603 59.4 169.903 64.9C165.703 69.9 162.953 73.05 161.653 74.35V94H149.653V85.45C146.453 88.35 142.903 90.65 139.003 92.35C135.103 94.05 131.153 94.95 127.153 95.05C120.853 95.15 115.003 93.65 109.603 90.55C104.203 87.35 99.9027 83.05 96.7027 77.65C93.6027 72.25 92.0527 66.35 92.0527 59.95C92.0527 53.65 93.6027 47.8 96.7027 42.4C99.9027 36.9 104.153 32.6 109.453 29.5C114.853 26.4 120.753 24.9 127.153 25C135.453 25.1 142.953 28.25 149.653 34.45V0.549996H161.653V51.25L149.053 64.6C149.453 63.1 149.653 61.55 149.653 59.95C149.653 53.75 147.453 48.45 143.053 44.05C138.653 39.65 133.353 37.45 127.153 37.45C120.953 37.45 115.653 39.65 111.253 44.05C106.853 48.45 104.653 53.75 104.653 59.95C104.653 66.15 106.853 71.45 111.253 75.85C115.653 80.25 120.953 82.45 127.153 82.45C133.653 82.45 140.403 78.9 147.403 71.8C150.203 69.1 153.203 66 156.403 62.5C159.603 58.9 161.203 57.1 161.203 57.1C162.203 56 163.653 54.35 165.553 52.15C167.653 49.75 169.203 48 170.203 46.9V26.05H182.353V34.6C185.153 31.6 187.853 29.3 190.453 27.7C193.153 26.1 196.453 25.2 200.353 25C209.053 24.5 215.703 26.8 220.303 31.9ZM170.203 70.45L182.353 56.05V94H170.203V70.45ZM238.118 7.14999C236.618 5.64999 234.768 4.89999 232.568 4.89999C230.468 4.89999 228.668 5.64999 227.168 7.14999C225.668 8.65 224.918 10.5 224.918 12.7C224.918 14.8 225.668 16.6 227.168 18.1C228.668 19.6 230.468 20.35 232.568 20.35C234.768 20.35 236.618 19.6 238.118 18.1C239.618 16.6 240.368 14.8 240.368 12.7C240.368 10.5 239.618 8.65 238.118 7.14999ZM226.568 93.85V25.9H238.568V93.85H226.568ZM253.689 25.9H275.889C286.489 25.9 294.089 28.05 298.689 32.35C303.389 36.65 305.739 43.65 305.739 53.35V93.85H293.739V85.45C293.639 85.55 293.539 85.65 293.439 85.75C290.939 88.45 288.389 90.6 285.789 92.2C283.189 93.7 279.439 94.6 274.539 94.9C265.939 95.5 258.839 94 253.239 90.4C247.739 86.8 244.889 81.4 244.689 74.2C244.489 66.9 247.039 61.15 252.339 56.95C257.639 52.65 264.989 50.5 274.389 50.5H293.589C293.589 45.4 292.089 41.95 289.089 40.15C286.189 38.25 281.989 37.3 276.489 37.3H253.689V25.9ZM293.739 61.75H274.389C269.089 61.75 264.939 62.75 261.939 64.75C259.039 66.65 257.539 69.25 257.439 72.55C257.239 76.75 258.839 79.75 262.239 81.55C265.639 83.35 269.989 83.85 275.289 83.05C278.689 82.55 281.739 81.35 284.439 79.45C287.139 77.45 289.339 75.35 291.039 73.15C292.839 70.95 293.739 69.85 293.739 69.85V61.75ZM308.703 93.85V0.399998H320.703V93.85H308.703ZM341.65 93.85H329.65V25.9H341.8V34.45C348.2 28.35 355.7 25.15 364.3 24.85C374.7 24.45 382.7 27.65 388.3 34.45C394 41.15 396.85 49.65 396.85 59.95V93.85H384.7V59.95C384.7 53.05 383.05 47.35 379.75 42.85C376.45 38.25 371.3 36.05 364.3 36.25C359.7 36.35 355.7 37.5 352.3 39.7C348.9 41.8 346.3 44.3 344.5 47.2C342.7 50.1 341.8 52.75 341.8 55.15L341.65 93.85ZM411.066 68.35V37.3H399.816V25.9H411.066V12.85H423.066V25.9H442.116V37.3H423.216V68.35C423.216 73.65 424.316 77.35 426.516 79.45C428.716 81.55 432.266 82.6 437.166 82.6H442.116V93.85H437.766C419.966 93.85 411.066 85.35 411.066 68.35ZM511.865 47.8L462.665 75.85C467.065 80.25 472.365 82.45 478.565 82.45C482.765 82.45 486.615 81.4 490.115 79.3C493.715 77.1 496.465 74.25 498.365 70.75L509.015 77.5C505.915 82.8 501.665 87.05 496.265 90.25C490.865 93.45 484.965 95.05 478.565 95.05C472.265 95.05 466.415 93.5 461.015 90.4C455.715 87.2 451.465 82.95 448.265 77.65C445.165 72.25 443.615 66.35 443.615 59.95C443.615 53.65 445.165 47.8 448.265 42.4C451.465 37 455.715 32.75 461.015 29.65C466.415 26.55 472.265 25 478.565 25C486.965 25 494.415 27.8 500.915 33.4C503.115 35.2 505.015 37.2 506.615 39.4C508.215 41.5 509.465 43.45 510.365 45.25C511.365 46.95 511.865 47.8 511.865 47.8ZM456.965 65.95L494.915 44.35C490.415 39.75 484.965 37.45 478.565 37.45C472.365 37.45 467.065 39.65 462.665 44.05C458.265 48.45 456.065 53.75 456.065 59.95C456.065 62.05 456.365 64.05 456.965 65.95ZM517.736 93.85V0.399998H529.736V93.85H517.736Z" fill="url(#paint0_linear_117_17)"/>
<defs>
<linearGradient id="paint0_linear_117_17" x1="-1" y1="50" x2="532" y2="50" gradientUnits="userSpaceOnUse">
<stop stop-color="#45B1A4"/>
<stop offset="1" stop-color="#006153"/>
</linearGradient>
</defs>
</svg>
